<?xml version="1.0" encoding="UTF-8"?>
<svg viewBox="0 0 24 24" fill="none" xmlns="http://www.w3.org/2000/svg">
  <path d="M12 4 C 15 4 19 8 19 12 C 19 16 15 20 12 20 C 9 20 5 16 5 12 C 5 8 9 4 12 4 Z" stroke="#c49a5c" stroke-width="1.5" fill="none" />
  <circle cx="12" cy="4" r="2" fill="#d4c88e" />
  <circle cx="19" cy="12" r="2" fill="#d4c88e" />
  <circle cx="12" cy="20" r="2" fill="#d4c88e" />
  <circle cx="5" cy="12" r="2" fill="#d4c88e" />
  <path d="M12 8 C 14 8 15 10 15 12 C 15 14 14 16 12 16 C 10 16 9 14 9 12 C 9 10 10 8 12 8 Z" fill="#bfa243" />
</svg>
